<?xml version="1.0" encoding="UTF-8" standalone="no"?>
<!DOCTYPE svg PUBLIC "-//W3C//DTD SVG 1.1//EN" "http://www.w3.org/Graphics/SVG/1.1/DTD/svg11.dtd">
<svg version="1.1" xmlns="http://www.w3.org/2000/svg" xmlns:xlink="http://www.w3.org/1999/xlink" preserveAspectRatio="xMidYMid meet" viewBox="0 0 640 640" width="640" height="640"><defs><path d="M640 640L640 0L0 0L0 640L640 640Z" id="b1yOqJcop"></path><path d="M245.8 482.54C396.75 482.54 479.29 357.48 479.29 249.04C479.29 245.49 479.22 241.95 479.06 238.44C495.08 226.85 509.01 212.4 520 195.94C505.29 202.48 489.47 206.88 472.87 208.86C489.81 198.71 502.82 182.63 508.96 163.47C493.1 172.87 475.54 179.7 456.85 183.39C441.87 167.44 420.55 157.46 396.95 157.46C351.62 157.46 314.87 194.21 314.87 239.52C314.87 245.96 315.59 252.22 317 258.23C248.79 254.8 188.31 222.14 147.84 172.49C140.79 184.61 136.73 198.71 136.73 213.73C136.73 242.21 151.22 267.34 173.24 282.05C159.78 281.63 147.14 277.93 136.08 271.78C136.06 272.12 136.06 272.47 136.06 272.83C136.06 312.58 164.35 345.76 201.9 353.28C195.01 355.16 187.75 356.17 180.26 356.17C174.98 356.17 169.84 355.64 164.84 354.69C175.28 387.29 205.58 411.02 241.5 411.69C213.41 433.7 178.03 446.82 139.58 446.82C132.96 446.82 126.42 446.44 120 445.68C156.32 468.96 199.44 482.54 245.8 482.54" id="a2eM9lkP6N"></path></defs><g><g><g><use xlink:href="#b1yOqJcop" opacity="1" fill="#1da1f2" fill-opacity="1"></use><g><use xlink:href="#b1yOqJcop" opacity="1" fill-opacity="0" stroke="#000000" stroke-width="1" stroke-opacity="0"></use></g></g><g><use xlink:href="#a2eM9lkP6N" opacity="1" fill="#ffffff" fill-opacity="1"></use><g><use xlink:href="#a2eM9lkP6N" opacity="1" fill-opacity="0" stroke="#000000" stroke-width="1" stroke-opacity="0"></use></g></g></g></g></svg>