<?xml version="1.0" encoding="UTF-8" standalone="no"?>
<!DOCTYPE svg PUBLIC "-//W3C//DTD SVG 1.1//EN" "http://www.w3.org/Graphics/SVG/1.1/DTD/svg11.dtd">
<svg version="1.1" xmlns="http://www.w3.org/2000/svg" xmlns:xlink="http://www.w3.org/1999/xlink" preserveAspectRatio="xMidYMid meet" viewBox="0 0 640 640" width="640" height="640"><defs><path d="M262.03 406.99C379.96 406.99 444.45 309.28 444.45 224.57C444.45 221.79 444.39 219.03 444.27 216.28C456.78 207.23 467.67 195.94 476.25 183.08C464.76 188.18 452.4 191.62 439.43 193.17C452.67 185.24 462.83 172.68 467.62 157.71C455.23 165.05 441.52 170.39 426.91 173.27C415.21 160.81 398.55 153.01 380.11 153.01C344.7 153.01 315.99 181.73 315.99 217.12C315.99 222.16 316.55 227.05 317.65 231.74C264.37 229.06 217.12 203.55 185.5 164.76C179.99 174.23 176.82 185.24 176.82 196.98C176.82 219.22 188.14 238.86 205.35 250.35C194.83 250.02 184.95 247.13 176.31 242.33C176.3 242.59 176.3 242.86 176.3 243.14C176.3 274.2 198.4 300.12 227.73 306C222.35 307.47 216.68 308.26 210.83 308.26C206.7 308.26 202.68 307.85 198.78 307.1C206.94 332.57 230.61 351.11 258.67 351.63C236.73 368.83 209.08 379.07 179.04 379.07C173.87 379.07 168.77 378.78 163.75 378.19C192.13 396.37 225.82 406.99 262.03 406.99" id="buiWN8hO2"></path></defs><g><g><g><use xlink:href="#buiWN8hO2" opacity="1" fill="#1da1f2" fill-opacity="1"></use><g><use xlink:href="#buiWN8hO2" opacity="1" fill-opacity="0" stroke="#000000" stroke-width="1" stroke-opacity="0"></use></g></g></g></g></svg>